<?xml version="1.0" encoding="UTF-8" standalone="no"?>
<svg
   xmlns:dc="http://purl.org/dc/elements/1.1/"
   xmlns:cc="http://creativecommons.org/ns#"
   xmlns:rdf="http://www.w3.org/1999/02/22-rdf-syntax-ns#"
   xmlns:svg="http://www.w3.org/2000/svg"
   xmlns="http://www.w3.org/2000/svg"
   viewBox="0 0 1050.9012 300.22134"
   height="300.22134"
   width="1050.9012"
   xml:space="preserve"
   id="svg2"
   version="1.1"><metadata
     id="metadata8"><rdf:RDF><cc:Work
         rdf:about=""><dc:format>image/svg+xml</dc:format><dc:type
           rdf:resource="http://purl.org/dc/dcmitype/StillImage" /></cc:Work></rdf:RDF></metadata><defs
     id="defs6"><clipPath
       id="clipPath18"
       clipPathUnits="userSpaceOnUse"><path
         id="path16"
         d="M 0,225.166 H 788.176 V 0 H 0 Z" /></clipPath></defs><g
     transform="matrix(1.3333333,0,0,-1.3333333,0,300.22133)"
     id="g10"><g
       id="g12"><g
         clip-path="url(#clipPath18)"
         id="g14"><g
           transform="translate(788.1758,22.4043)"
           id="g20"><path
             id="path22"
             style="fill:#2b2927;fill-opacity:1;fill-rule:nonzero;stroke:none"
             d="m 0,0 c 0,-12.535 -10.072,-22.404 -22.629,-22.404 h -743.455 c -12.557,0 -22.092,9.574 -22.092,22.111 v 180.979 c 0,12.539 9.535,22.076 22.092,22.076 h 743.455 c 12.557,0 22.522,-9.537 22.522,-22.076 V -0.293 Z" /></g><g
           transform="translate(172.5937,113.8652)"
           id="g24"><path
             id="path26"
             style="fill:#ffffff;fill-opacity:1;fill-rule:nonzero;stroke:none"
             d="M 0,0 C -0.178,19.092 15.637,28.387 16.358,28.816 7.41,41.881 -6.476,43.658 -11.351,43.801 c -11.651,1.222 -22.959,-6.985 -28.885,-6.985 -6.055,0 -15.217,6.86 -25.057,6.663 -12.683,-0.206 -24.549,-7.545 -31.049,-18.94 -13.422,-23.244 -3.412,-57.4 9.446,-76.199 6.439,-9.197 13.958,-19.475 23.798,-19.108 9.625,0.401 13.217,6.133 24.842,6.133 11.52,0 14.897,-6.133 24.934,-5.902 10.332,0.17 16.832,9.244 23.039,18.531 7.445,10.545 10.429,20.93 10.547,21.467 C 20.021,-30.459 0.197,-22.896 0,0" /></g><g
           transform="translate(153.6289,170.0234)"
           id="g28"><path
             id="path30"
             style="fill:#ffffff;fill-opacity:1;fill-rule:nonzero;stroke:none"
             d="M 0,0 C 5.178,6.475 8.731,15.291 7.731,24.229 0.24,23.896 -9.127,19.049 -14.521,12.709 -19.299,7.127 -23.576,-2.025 -22.469,-10.625 -14.039,-11.25 -5.404,-6.373 0,0" /></g><g
           transform="translate(288.8945,77.2988)"
           id="g32"><path
             id="path34"
             style="fill:#ffffff;fill-opacity:1;fill-rule:nonzero;stroke:none"
             d="m 0,0 -6.66,20.592 c -0.715,2.097 -2.037,7.054 -3.984,14.849 h -0.233 c -0.783,-3.357 -2.035,-8.304 -3.75,-14.849 L -21.18,0 Z M 23.039,-32.889 H 9.59 L 2.215,-9.717 h -25.611 l -7.028,-23.172 h -13.099 l 25.396,78.858 h 15.664 z" /></g><g
           transform="translate(364.3516,73.084)"
           id="g36"><path
             id="path38"
             style="fill:#ffffff;fill-opacity:1;fill-rule:nonzero;stroke:none"
             d="m 0,0 c 0,5.535 -1.25,10.098 -3.742,13.689 -2.734,3.741 -6.402,5.618 -10.992,5.618 -3.125,0 -5.965,-1.045 -8.483,-3.1 -2.537,-2.082 -4.197,-4.785 -4.974,-8.144 -0.393,-1.563 -0.58,-2.84 -0.58,-3.848 V -5.27 c 0,-4.134 1.259,-7.625 3.787,-10.464 2.545,-2.86 5.838,-4.27 9.892,-4.27 4.76,0 8.467,1.82 11.11,5.492 C -1.32,-10.84 0,-6.01 0,0 m 12.869,0.465 c 0,-9.672 -2.609,-17.317 -7.84,-22.934 -4.679,-4.992 -10.494,-7.482 -17.425,-7.482 -7.491,0 -12.875,2.697 -16.153,8.072 h -0.222 V -51.828 H -41.416 V 9.475 c 0,6.08 -0.152,12.312 -0.465,18.716 h 11.11 l 0.705,-9.011 h 0.24 c 4.207,6.789 10.609,10.181 19.182,10.181 6.697,0 12.306,-2.654 16.789,-7.959 4.482,-5.312 6.724,-12.287 6.724,-20.937" /></g><g
           transform="translate(429.7539,73.084)"
           id="g40"><path
             id="path42"
             style="fill:#ffffff;fill-opacity:1;fill-rule:nonzero;stroke:none"
             d="m 0,0 c 0,5.535 -1.25,10.098 -3.752,13.689 -2.732,3.741 -6.394,5.618 -10.992,5.618 -3.125,0 -5.957,-1.045 -8.484,-3.1 -2.534,-2.082 -4.188,-4.785 -4.963,-8.144 -0.403,-1.563 -0.59,-2.84 -0.59,-3.848 V -5.27 c 0,-4.134 1.258,-7.625 3.795,-10.464 2.537,-2.86 5.824,-4.27 9.894,-4.27 4.75,0 8.465,1.82 11.11,5.492 C -1.34,-10.84 0,-6.01 0,0 m 12.858,0.465 c 0,-9.672 -2.606,-17.317 -7.84,-22.934 -4.68,-4.992 -10.483,-7.482 -17.43,-7.482 -7.484,0 -12.859,2.697 -16.137,8.072 h -0.232 V -51.828 H -41.416 V 9.475 c 0,6.08 -0.162,12.312 -0.465,18.716 h 11.108 l 0.707,-9.011 h 0.242 c 4.195,6.789 10.588,10.181 19.178,10.181 6.699,0 12.298,-2.654 16.789,-7.959 4.482,-5.312 6.715,-12.287 6.715,-20.937" /></g><g
           transform="translate(515.7383,66.5293)"
           id="g44"><path
             id="path46"
             style="fill:#ffffff;fill-opacity:1;fill-rule:nonzero;stroke:none"
             d="m 0,0 c 0,-6.707 -2.322,-12.162 -7.01,-16.379 -5.136,-4.607 -12.289,-6.9 -21.469,-6.9 -8.482,0 -15.294,1.634 -20.447,4.908 l 2.93,10.529 c 5.553,-3.355 11.635,-5.025 18.268,-5.025 4.761,0 8.466,1.07 11.125,3.213 2.646,2.152 3.968,5.027 3.968,8.617 0,3.197 -1.091,5.902 -3.269,8.084 -2.18,2.193 -5.824,4.221 -10.895,6.098 -13.805,5.16 -20.697,12.697 -20.697,22.617 0,6.484 2.41,11.799 7.252,15.931 4.83,4.145 11.266,6.223 19.305,6.223 7.177,0 13.144,-1.258 17.894,-3.748 L -6.197,43.871 c -4.449,2.412 -9.475,3.625 -15.1,3.625 -4.447,0 -7.912,-1.088 -10.404,-3.275 -2.096,-1.948 -3.153,-4.332 -3.153,-7.137 0,-3.115 1.198,-5.697 3.618,-7.715 2.097,-1.875 5.922,-3.902 11.465,-6.092 6.787,-2.732 11.769,-5.927 14.976,-9.588 C -1.601,10.018 0,5.455 0,0" /></g><g
           transform="translate(557.5039,91.8008)"
           id="g48"><path
             id="path50"
             style="fill:#ffffff;fill-opacity:1;fill-rule:nonzero;stroke:none"
             d="m 0,0 h -13.922 v -27.611 c 0,-7.02 2.455,-10.528 7.377,-10.528 2.248,0 4.123,0.196 5.606,0.58 l 0.347,-9.591 c -2.48,-0.936 -5.765,-1.401 -9.82,-1.401 -4.994,0 -8.895,1.518 -11.699,4.553 -2.805,3.045 -4.213,8.162 -4.213,15.332 V 0 h -8.307 v 9.482 h 8.307 v 10.405 l 12.402,3.75 V 9.482 L 0,9.482 Z" /></g><g
           transform="translate(607.2246,72.9063)"
           id="g52"><path
             id="path54"
             style="fill:#ffffff;fill-opacity:1;fill-rule:nonzero;stroke:none"
             d="m 0,0 c 0,5.24 -1.127,9.732 -3.396,13.49 -2.641,4.537 -6.428,6.807 -11.338,6.807 -5.082,0 -8.94,-2.27 -11.584,-6.807 -2.268,-3.758 -3.383,-8.33 -3.383,-13.734 0,-5.24 1.115,-9.733 3.383,-13.485 2.724,-4.535 6.547,-6.802 11.476,-6.802 4.821,0 8.61,2.302 11.332,6.92 C -1.17,-9.779 0,-5.244 0,0 m 13.108,0.408 c 0,-8.74 -2.491,-15.912 -7.483,-21.529 -5.234,-5.777 -12.18,-8.652 -20.824,-8.652 -8.358,0 -14.992,2.767 -19.949,8.306 -4.956,5.535 -7.43,12.518 -7.43,20.93 0,8.824 2.547,16.037 7.662,21.644 5.1,5.627 11.984,8.432 20.645,8.432 8.339,0 15.056,-2.769 20.125,-8.307 C 10.697,15.84 13.108,8.91 13.108,0.408" /></g><g
           transform="translate(661.3906,90.166)"
           id="g56"><path
             id="path58"
             style="fill:#ffffff;fill-opacity:1;fill-rule:nonzero;stroke:none"
             d="m 0,0 c -1.248,0.223 -2.57,0.348 -3.973,0.348 -4.437,0 -7.884,-1.688 -10.304,-5.036 -2.098,-2.966 -3.153,-6.708 -3.153,-11.226 v -29.834 h -12.627 l 0.108,38.951 c 0,6.555 -0.162,12.522 -0.463,17.906 h 11 l 0.465,-10.886 h 0.34 c 1.33,3.742 3.445,6.75 6.322,9.009 2.803,2.028 5.857,3.047 9.135,3.047 1.16,0 2.222,-0.08 3.15,-0.224 z" /></g><g
           transform="translate(705.8437,78.8164)"
           id="g60"><path
             id="path62"
             style="fill:#ffffff;fill-opacity:1;fill-rule:nonzero;stroke:none"
             d="m 0,0 c 0.09,3.734 -0.732,6.975 -2.447,9.707 -2.188,3.51 -5.555,5.268 -10.074,5.268 -4.125,0 -7.481,-1.723 -10.053,-5.153 -2.108,-2.732 -3.358,-6 -3.733,-9.822 z m 12.047,-3.277 c 0,-2.27 -0.152,-4.17 -0.455,-5.735 h -37.899 c 0.143,-5.615 1.983,-9.91 5.493,-12.877 3.187,-2.652 7.33,-3.963 12.404,-3.963 5.597,0 10.715,0.893 15.322,2.686 l 1.983,-8.777 c -5.375,-2.34 -11.733,-3.518 -19.075,-3.518 -8.804,0 -15.734,2.6 -20.761,7.789 -5.02,5.18 -7.545,12.152 -7.545,20.885 0,8.572 2.338,15.715 7.027,21.414 4.902,6.082 11.537,9.117 19.877,9.117 8.188,0 14.404,-3.035 18.621,-9.117 3.338,-4.84 5.008,-10.805 5.008,-17.904" /></g><g
           transform="translate(277.6797,171.6055)"
           id="g64"><path
             id="path66"
             style="fill:#ffffff;fill-opacity:1;fill-rule:nonzero;stroke:none"
             d="m 0,0 c 0,4.529 -1.205,7.992 -3.598,10.412 -2.402,2.412 -5.884,3.615 -10.494,3.615 -1.955,0 -3.615,-0.131 -5,-0.402 v -28.967 c 0.768,-0.117 2.17,-0.17 4.196,-0.17 4.75,0 8.431,1.315 11,3.965 C -1.303,-8.904 0,-5.055 0,0 m 6.537,0.178 c 0,-6.973 -2.08,-12.227 -6.26,-15.75 -3.867,-3.252 -9.367,-4.887 -16.486,-4.887 -3.525,0 -6.562,0.152 -9.088,0.465 v 38.103 c 3.293,0.536 6.858,0.803 10.69,0.803 6.785,0 11.9,-1.474 15.357,-4.428 3.856,-3.33 5.787,-8.099 5.787,-14.306" /></g><g
           transform="translate(312.498,165.4883)"
           id="g68"><path
             id="path70"
             style="fill:#ffffff;fill-opacity:1;fill-rule:nonzero;stroke:none"
             d="m 0,0 c 0,2.58 -0.564,4.779 -1.672,6.627 -1.304,2.232 -3.158,3.35 -5.572,3.35 -2.484,0 -4.393,-1.118 -5.688,-3.35 -1.115,-1.848 -1.671,-4.09 -1.671,-6.734 0,-2.581 0.556,-4.795 1.671,-6.643 1.331,-2.225 3.204,-3.342 5.635,-3.342 2.367,0 4.233,1.135 5.571,3.405 C -0.582,-4.805 0,-2.582 0,0 m 6.438,0.197 c 0,-4.287 -1.233,-7.814 -3.68,-10.564 -2.57,-2.85 -5.984,-4.268 -10.234,-4.268 -4.108,0 -7.366,1.365 -9.803,4.088 -2.43,2.715 -3.645,6.145 -3.645,10.287 0,4.332 1.252,7.877 3.77,10.635 2.5,2.762 5.89,4.137 10.144,4.137 4.106,0 7.393,-1.367 9.875,-4.08 C 5.25,7.787 6.438,4.375 6.438,0.197" /></g><g
           transform="translate(365.4941,179.4277)"
           id="g72"><path
             id="path74"
             style="fill:#ffffff;fill-opacity:1;fill-rule:nonzero;stroke:none"
             d="m 0,0 -8.75,-27.932 h -5.68 l -3.625,12.118 c -0.912,3.027 -1.662,6.046 -2.242,9.027 h -0.105 c -0.547,-3.063 -1.297,-6.07 -2.252,-9.027 l -3.848,-12.118 h -5.752 L -40.469,0 h 6.385 l 3.152,-13.279 c 0.77,-3.143 1.401,-6.125 1.903,-8.965 h 0.115 c 0.465,2.34 1.215,5.312 2.305,8.912 L -22.654,0 h 5.053 l 3.796,-13.045 c 0.93,-3.189 1.678,-6.252 2.241,-9.199 h 0.17 c 0.429,2.875 1.054,5.937 1.912,9.199 L -6.088,0 Z" /></g><g
           transform="translate(397.6777,151.4961)"
           id="g76"><path
             id="path78"
             style="fill:#ffffff;fill-opacity:1;fill-rule:nonzero;stroke:none"
             d="m 0,0 h -6.205 v 15.992 c 0,4.94 -1.877,7.393 -5.637,7.393 -1.84,0 -3.32,-0.678 -4.482,-2.026 -1.143,-1.367 -1.723,-2.955 -1.723,-4.796 V 0 h -6.207 v 19.939 c 0,2.457 -0.07,5.118 -0.224,7.993 h 5.451 l 0.295,-4.368 h 0.175 c 0.715,1.358 1.795,2.483 3.215,3.368 1.68,1.043 3.565,1.582 5.627,1.582 2.608,0 4.776,-0.858 6.5,-2.537 C -1.072,23.914 0,20.814 0,16.725 Z" /></g><path
           id="path80"
           style="fill:#ffffff;fill-opacity:1;fill-rule:nonzero;stroke:none"
           d="m 414.812,151.496 h -6.221 v 40.754 h 6.221 z" /><g
           transform="translate(444.9258,165.4883)"
           id="g82"><path
             id="path84"
             style="fill:#ffffff;fill-opacity:1;fill-rule:nonzero;stroke:none"
             d="m 0,0 c 0,2.58 -0.563,4.779 -1.67,6.627 -1.306,2.232 -3.16,3.35 -5.572,3.35 -2.484,0 -4.393,-1.118 -5.699,-3.35 -1.106,-1.848 -1.662,-4.09 -1.662,-6.734 0,-2.581 0.556,-4.795 1.662,-6.643 1.34,-2.225 3.215,-3.342 5.628,-3.342 2.383,0 4.249,1.135 5.59,3.405 C -0.582,-4.805 0,-2.582 0,0 m 6.438,0.197 c 0,-4.287 -1.233,-7.814 -3.688,-10.564 -2.562,-2.85 -5.976,-4.268 -10.232,-4.268 -4.1,0 -7.36,1.365 -9.797,4.088 -2.43,2.715 -3.645,6.145 -3.645,10.287 0,4.332 1.244,7.877 3.76,10.635 2.51,2.762 5.885,4.137 10.154,4.137 4.09,0 7.393,-1.367 9.875,-4.08 C 5.242,7.787 6.438,4.375 6.438,0.197" /></g><g
           transform="translate(474.9727,161.0937)"
           id="g86"><path
             id="path88"
             style="fill:#ffffff;fill-opacity:1;fill-rule:nonzero;stroke:none"
             d="m 0,0 v 4.307 c -6.857,0.113 -10.285,-1.77 -10.285,-5.637 0,-1.455 0.412,-2.535 1.215,-3.268 0.795,-0.724 1.801,-1.088 3.017,-1.088 1.365,0 2.625,0.428 3.803,1.286 1.162,0.855 1.875,1.964 2.135,3.302 C -0.033,-0.783 0,-0.418 0,0 M 6.449,-9.598 H 0.869 L 0.412,-6.385 H 0.233 c -1.92,-2.57 -4.633,-3.847 -8.153,-3.847 -2.652,0 -4.785,0.839 -6.393,2.537 -1.456,1.525 -2.169,3.427 -2.169,5.677 0,3.411 1.419,6.02 4.285,7.823 2.84,1.804 6.859,2.679 12.029,2.644 v 0.518 c 0,3.679 -1.93,5.517 -5.785,5.517 -2.762,0 -5.191,-0.697 -7.289,-2.07 l -1.258,4.08 c 2.606,1.608 5.785,2.412 9.57,2.412 7.325,0 10.969,-3.849 10.969,-11.556 V -2.936 c 0,-2.789 0.141,-5.019 0.41,-6.662" /></g><g
           transform="translate(510.2832,163.2734)"
           id="g90"><path
             id="path92"
             style="fill:#ffffff;fill-opacity:1;fill-rule:nonzero;stroke:none"
             d="m 0,0 v 4.654 c 0,0.803 -0.063,1.463 -0.18,1.955 -0.347,1.491 -1.097,2.758 -2.259,3.768 -1.151,1.019 -2.528,1.519 -4.151,1.519 -2.306,0 -4.127,-0.912 -5.449,-2.751 -1.338,-1.848 -2,-4.198 -2,-7.063 0,-2.77 0.643,-5.02 1.912,-6.734 1.346,-1.84 3.151,-2.758 5.41,-2.758 2.047,0 3.696,0.767 4.912,2.303 C -0.607,-3.697 0,-1.99 0,0 M 6.428,-11.777 H 0.91 l -0.295,4.48 h -0.17 c -1.759,-3.41 -4.75,-5.123 -8.957,-5.123 -3.384,0 -6.17,1.328 -8.392,3.973 -2.223,2.642 -3.33,6.072 -3.33,10.287 0,4.527 1.195,8.181 3.605,10.984 2.342,2.606 5.215,3.903 8.627,3.903 3.76,0 6.385,-1.26 7.875,-3.795 H 0 V 28.971 H 6.197 V -4.25 c 0,-2.725 0.08,-5.232 0.231,-7.527" /></g><g
           transform="translate(563.3789,165.4883)"
           id="g94"><path
             id="path96"
             style="fill:#ffffff;fill-opacity:1;fill-rule:nonzero;stroke:none"
             d="m 0,0 c 0,2.58 -0.563,4.779 -1.67,6.627 -1.295,2.232 -3.172,3.35 -5.564,3.35 -2.498,0 -4.401,-1.118 -5.698,-3.35 -1.107,-1.848 -1.671,-4.09 -1.671,-6.734 0,-2.581 0.564,-4.795 1.671,-6.643 1.342,-2.225 3.215,-3.342 5.637,-3.342 2.365,0 4.223,1.135 5.563,3.405 C -0.572,-4.805 0,-2.582 0,0 m 6.447,0.197 c 0,-4.287 -1.232,-7.814 -3.697,-10.564 -2.555,-2.85 -5.973,-4.268 -10.217,-4.268 -4.115,0 -7.375,1.365 -9.804,4.088 -2.428,2.715 -3.643,6.145 -3.643,10.287 0,4.332 1.25,7.877 3.752,10.635 2.516,2.762 5.9,4.137 10.141,4.137 4.111,0 7.396,-1.367 9.898,-4.08 C 5.25,7.787 6.447,4.375 6.447,0.197" /></g><g
           transform="translate(603.2051,151.4961)"
           id="g98"><path
             id="path100"
             style="fill:#ffffff;fill-opacity:1;fill-rule:nonzero;stroke:none"
             d="m 0,0 h -6.215 v 15.992 c 0,4.94 -1.877,7.393 -5.625,7.393 -1.84,0 -3.342,-0.678 -4.484,-2.026 -1.143,-1.367 -1.731,-2.955 -1.731,-4.796 V 0 h -6.197 v 19.939 c 0,2.457 -0.09,5.118 -0.234,7.993 h 5.465 l 0.287,-4.368 h 0.179 c 0.715,1.358 1.784,2.483 3.213,3.368 1.68,1.043 3.571,1.582 5.627,1.582 2.614,0 4.785,-0.858 6.5,-2.537 C -1.07,23.914 0,20.814 0,16.725 Z" /></g><g
           transform="translate(644.9961,174.7754)"
           id="g102"><path
             id="path104"
             style="fill:#ffffff;fill-opacity:1;fill-rule:nonzero;stroke:none"
             d="m 0,0 h -6.84 v -13.574 c 0,-3.446 1.196,-5.168 3.625,-5.168 1.108,0 2.02,0.097 2.752,0.285 l 0.178,-4.707 c -1.236,-0.455 -2.84,-0.697 -4.83,-0.697 -2.457,0 -4.367,0.75 -5.742,2.24 -1.375,1.504 -2.073,4.002 -2.073,7.539 V 0 h -4.091 v 4.652 h 4.091 V 9.77 l 6.09,1.832 V 4.652 H 0 Z" /></g><g
           transform="translate(677.8594,151.4961)"
           id="g106"><path
             id="path108"
             style="fill:#ffffff;fill-opacity:1;fill-rule:nonzero;stroke:none"
             d="m 0,0 h -6.199 v 15.877 c 0,5.01 -1.875,7.508 -5.645,7.508 -2.855,0 -4.838,-1.453 -5.9,-4.348 -0.205,-0.615 -0.295,-1.365 -0.295,-2.24 V 0 h -6.207 v 40.754 h 6.207 v -16.84 h 0.125 c 1.947,3.063 4.742,4.6 8.375,4.6 2.58,0 4.699,-0.858 6.385,-2.537 C -1.055,23.871 0,20.744 0,16.6 Z" /></g><g
           transform="translate(705.8613,168.3906)"
           id="g110"><path
             id="path112"
             style="fill:#ffffff;fill-opacity:1;fill-rule:nonzero;stroke:none"
             d="M 0,0 C 0.035,1.84 -0.367,3.43 -1.213,4.768 -2.277,6.49 -3.93,7.359 -6.144,7.359 -8.18,7.359 -9.82,6.52 -11.107,4.83 -12.127,3.48 -12.732,1.877 -12.93,0 Z M 5.93,-1.609 C 5.93,-2.715 5.84,-3.66 5.699,-4.43 H -12.93 c 0.071,-2.759 0.965,-4.859 2.698,-6.312 1.57,-1.311 3.609,-1.957 6.088,-1.957 2.771,0 5.271,0.439 7.537,1.322 l 0.963,-4.311 c -2.625,-1.146 -5.758,-1.726 -9.356,-1.726 -4.322,0 -7.732,1.277 -10.207,3.812 -2.455,2.555 -3.707,5.975 -3.707,10.262 0,4.215 1.143,7.725 3.449,10.527 2.428,2.993 5.68,4.483 9.77,4.483 4.035,0 7.072,-1.49 9.142,-4.483 C 5.09,4.814 5.93,1.877 5.93,-1.609" /></g></g></g></g></svg>