<?xml version="1.0" encoding="UTF-8" standalone="no"?>
<svg
   xmlns:dc="http://purl.org/dc/elements/1.1/"
   xmlns:cc="http://creativecommons.org/ns#"
   xmlns:rdf="http://www.w3.org/1999/02/22-rdf-syntax-ns#"
   xmlns:svg="http://www.w3.org/2000/svg"
   xmlns="http://www.w3.org/2000/svg"
   xmlns:sodipodi="http://sodipodi.sourceforge.net/DTD/sodipodi-0.dtd"
   xmlns:inkscape="http://www.inkscape.org/namespaces/inkscape"
   version="1.1"
   id="svg2"
   xml:space="preserve"
   width="1122.52"
   height="793.70001"
   viewBox="0 0 1122.52 793.70001"
   sodipodi:docname="get-it-on-google-play-2016-seeklogo.com.ai"><metadata
     id="metadata8"><rdf:RDF><cc:Work
         rdf:about=""><dc:format>image/svg+xml</dc:format><dc:type
           rdf:resource="http://purl.org/dc/dcmitype/StillImage" /></cc:Work></rdf:RDF></metadata><defs
     id="defs6"><clipPath
       clipPathUnits="userSpaceOnUse"
       id="clipPath18"><path
         d="M 0,595.275 H 841.89 V 0 H 0 Z"
         id="path16" /></clipPath><linearGradient
       x1="0"
       y1="0"
       x2="1"
       y2="0"
       gradientUnits="userSpaceOnUse"
       gradientTransform="matrix(-59.646206,58.952183,-59.646149,-58.95224,258.55566,257.85449)"
       spreadMethod="pad"
       id="linearGradient104"><stop
         style="stop-opacity:1;stop-color:#00a0ff"
         offset="0"
         id="stop92" /><stop
         style="stop-opacity:1;stop-color:#00a1ff"
         offset="0.0066"
         id="stop94" /><stop
         style="stop-opacity:1;stop-color:#00beff"
         offset="0.2601"
         id="stop96" /><stop
         style="stop-opacity:1;stop-color:#00d2ff"
         offset="0.5122"
         id="stop98" /><stop
         style="stop-opacity:1;stop-color:#00dfff"
         offset="0.7604"
         id="stop100" /><stop
         style="stop-opacity:1;stop-color:#00e3ff"
         offset="1"
         id="stop102" /></linearGradient><linearGradient
       x1="0"
       y1="0"
       x2="1"
       y2="0"
       gradientUnits="userSpaceOnUse"
       gradientTransform="matrix(-85.995308,-7.4e-6,7.5e-6,-84.994774,301.33154,297.52002)"
       spreadMethod="pad"
       id="linearGradient128"><stop
         style="stop-opacity:1;stop-color:#ffe000"
         offset="0"
         id="stop120" /><stop
         style="stop-opacity:1;stop-color:#ffbd00"
         offset="0.4087"
         id="stop122" /><stop
         style="stop-opacity:1;stop-color:#ffa500"
         offset="0.7754"
         id="stop124" /><stop
         style="stop-opacity:1;stop-color:#ff9c00"
         offset="1"
         id="stop126" /></linearGradient><linearGradient
       x1="0"
       y1="0"
       x2="1"
       y2="0"
       gradientUnits="userSpaceOnUse"
       gradientTransform="matrix(-80.862564,79.921753,-80.862564,-79.921753,239.66309,276.26855)"
       spreadMethod="pad"
       id="linearGradient148"><stop
         style="stop-opacity:1;stop-color:#ff3a44"
         offset="0"
         id="stop144" /><stop
         style="stop-opacity:1;stop-color:#c31162"
         offset="1"
         id="stop146" /></linearGradient><linearGradient
       x1="0"
       y1="0"
       x2="1"
       y2="0"
       gradientUnits="userSpaceOnUse"
       gradientTransform="matrix(36.115265,35.694748,-36.114933,35.695072,177.36816,257.18848)"
       spreadMethod="pad"
       id="linearGradient174"><stop
         style="stop-opacity:1;stop-color:#32a071"
         offset="0"
         id="stop164" /><stop
         style="stop-opacity:1;stop-color:#2da771"
         offset="0.0685"
         id="stop166" /><stop
         style="stop-opacity:1;stop-color:#15cf74"
         offset="0.4762"
         id="stop168" /><stop
         style="stop-opacity:1;stop-color:#06e775"
         offset="0.8009"
         id="stop170" /><stop
         style="stop-opacity:1;stop-color:#00f076"
         offset="1"
         id="stop172" /></linearGradient><clipPath
       clipPathUnits="userSpaceOnUse"
       id="clipPath184"><path
         d="M 0,595.275 H 841.89 V 0 H 0 Z"
         id="path182" /></clipPath><clipPath
       clipPathUnits="userSpaceOnUse"
       id="clipPath192"><path
         d="M 145.541,402.9 H 696.413 V 192.138 H 145.541 Z"
         id="path190" /></clipPath><clipPath
       clipPathUnits="userSpaceOnUse"
       id="clipPath196"><path
         d="M 145.541,402.9 H 696.413 V 192.138 H 145.541 Z"
         id="path194" /></clipPath><clipPath
       clipPathUnits="userSpaceOnUse"
       id="clipPath200"><path
         d="M 180.269,368.885 H 619.916 V 198.699 H 180.269 Z"
         id="path198" /></clipPath><mask
       maskUnits="userSpaceOnUse"
       x="0"
       y="0"
       width="1"
       height="1"
       id="mask202"><g
         id="g222"><g
           clip-path="url(#clipPath192)"
           id="g220"><path
             d="M 145.541,402.9 H 696.413 V 192.137 H 145.541 Z"
             style="fill:#000000;fill-opacity:1;fill-rule:nonzero;stroke:none"
             id="path204" /><g
             id="g218"><g
               id="g206" /><g
               id="g216"><g
                 clip-path="url(#clipPath196)"
                 id="g214"><g
                   id="g212"><g
                     clip-path="url(#clipPath200)"
                     id="g210"><path
                       d="M 180.269,368.885 H 619.916 V 198.699 H 180.269 Z"
                       style="fill:#000000;fill-opacity:0.199997;fill-rule:nonzero;stroke:none"
                       id="path208" /></g></g></g></g></g></g></g></mask><clipPath
       clipPathUnits="userSpaceOnUse"
       id="clipPath230"><path
         d="M 145.541,402.9 H 696.413 V 192.138 H 145.541 Z"
         id="path228" /></clipPath><clipPath
       clipPathUnits="userSpaceOnUse"
       id="clipPath234"><path
         d="M 145.541,192.138 H 696.413 V 402.901 H 145.541 Z"
         id="path232" /></clipPath><clipPath
       clipPathUnits="userSpaceOnUse"
       id="clipPath238"><path
         d="M 0,0 H 124 V 48 H 0 Z"
         id="path236" /></clipPath><pattern
       patternTransform="matrix(4.44254,0,0,-4.39085,25688.8,-32305.2)"
       patternUnits="userSpaceOnUse"
       x="0"
       y="0"
       width="124"
       height="48"
       id="pattern248"><g
         id="g246"><g
           clip-path="url(#clipPath238)"
           id="g244"><g
             transform="translate(29.625,20.6948)"
             id="g242"><path
               d="m 0,0 -11.613,-6.597 c -0.649,-0.371 -1.231,-0.344 -1.606,-0.008 l -0.058,-0.063 0.058,-0.058 c 0.375,-0.336 0.957,-0.36 1.606,0.011 L 0.074,-0.074 0,0 Z"
               style="fill:#000000;fill-opacity:1;fill-rule:nonzero;stroke:none"
               id="path240" /></g></g></g></pattern><clipPath
       clipPathUnits="userSpaceOnUse"
       id="clipPath266"><path
         d="M 145.541,402.9 H 696.413 V 192.138 H 145.541 Z"
         id="path264" /></clipPath><clipPath
       clipPathUnits="userSpaceOnUse"
       id="clipPath270"><path
         d="M 145.541,402.9 H 696.413 V 192.138 H 145.541 Z"
         id="path268" /></clipPath><clipPath
       clipPathUnits="userSpaceOnUse"
       id="clipPath274"><path
         d="M 180.269,368.885 H 619.916 V 198.699 H 180.269 Z"
         id="path272" /></clipPath><mask
       maskUnits="userSpaceOnUse"
       x="0"
       y="0"
       width="1"
       height="1"
       id="mask276"><g
         id="g296"><g
           clip-path="url(#clipPath266)"
           id="g294"><path
             d="M 145.541,402.9 H 696.413 V 192.137 H 145.541 Z"
             style="fill:#000000;fill-opacity:1;fill-rule:nonzero;stroke:none"
             id="path278" /><g
             id="g292"><g
               id="g280" /><g
               id="g290"><g
                 clip-path="url(#clipPath270)"
                 id="g288"><g
                   id="g286"><g
                     clip-path="url(#clipPath274)"
                     id="g284"><path
                       d="M 180.269,368.885 H 619.916 V 198.699 H 180.269 Z"
                       style="fill:#000000;fill-opacity:0.119995;fill-rule:nonzero;stroke:none"
                       id="path282" /></g></g></g></g></g></g></g></mask><clipPath
       clipPathUnits="userSpaceOnUse"
       id="clipPath304"><path
         d="M 145.541,402.9 H 696.413 V 192.138 H 145.541 Z"
         id="path302" /></clipPath><clipPath
       clipPathUnits="userSpaceOnUse"
       id="clipPath308"><path
         d="M 145.541,192.138 H 696.413 V 402.901 H 145.541 Z"
         id="path306" /></clipPath><clipPath
       clipPathUnits="userSpaceOnUse"
       id="clipPath312"><path
         d="M 0,0 H 124 V 48 H 0 Z"
         id="path310" /></clipPath><pattern
       patternTransform="matrix(4.44254,0,0,-4.39085,25688.8,-32305.2)"
       patternUnits="userSpaceOnUse"
       x="0"
       y="0"
       width="124"
       height="48"
       id="pattern322"><g
         id="g320"><g
           clip-path="url(#clipPath312)"
           id="g318"><g
             transform="translate(16.3481,14.145)"
             id="g316"><path
               d="m 0,0 c -0.235,0.246 -0.371,0.628 -0.371,1.125 l 0,-0.118 C -0.371,0.511 -0.235,0.128 0,-0.118 L 0.058,-0.055 0,0 Z"
               style="fill:#000000;fill-opacity:1;fill-rule:nonzero;stroke:none"
               id="path314" /></g></g></g></pattern><clipPath
       clipPathUnits="userSpaceOnUse"
       id="clipPath340"><path
         d="M 145.541,402.9 H 696.413 V 192.138 H 145.541 Z"
         id="path338" /></clipPath><clipPath
       clipPathUnits="userSpaceOnUse"
       id="clipPath344"><path
         d="M 145.541,402.9 H 696.413 V 192.138 H 145.541 Z"
         id="path342" /></clipPath><clipPath
       clipPathUnits="userSpaceOnUse"
       id="clipPath348"><path
         d="M 180.269,368.885 H 619.916 V 198.699 H 180.269 Z"
         id="path346" /></clipPath><mask
       maskUnits="userSpaceOnUse"
       x="0"
       y="0"
       width="1"
       height="1"
       id="mask350"><g
         id="g370"><g
           clip-path="url(#clipPath340)"
           id="g368"><path
             d="M 145.541,402.9 H 696.413 V 192.137 H 145.541 Z"
             style="fill:#000000;fill-opacity:1;fill-rule:nonzero;stroke:none"
             id="path352" /><g
             id="g366"><g
               id="g354" /><g
               id="g364"><g
                 clip-path="url(#clipPath344)"
                 id="g362"><g
                   id="g360"><g
                     clip-path="url(#clipPath348)"
                     id="g358"><path
                       d="M 180.269,368.885 H 619.916 V 198.699 H 180.269 Z"
                       style="fill:#000000;fill-opacity:0.119995;fill-rule:nonzero;stroke:none"
                       id="path356" /></g></g></g></g></g></g></g></mask><clipPath
       clipPathUnits="userSpaceOnUse"
       id="clipPath378"><path
         d="M 145.541,402.9 H 696.413 V 192.138 H 145.541 Z"
         id="path376" /></clipPath><clipPath
       clipPathUnits="userSpaceOnUse"
       id="clipPath382"><path
         d="M 145.541,192.138 H 696.413 V 402.901 H 145.541 Z"
         id="path380" /></clipPath><clipPath
       clipPathUnits="userSpaceOnUse"
       id="clipPath386"><path
         d="M 0,0 H 124 V 48 H 0 Z"
         id="path384" /></clipPath><pattern
       patternTransform="matrix(4.44254,0,0,-4.39085,25688.8,-32305.2)"
       patternUnits="userSpaceOnUse"
       x="0"
       y="0"
       width="124"
       height="48"
       id="pattern396"><g
         id="g394"><g
           clip-path="url(#clipPath386)"
           id="g392"><g
             transform="translate(33.6128,22.9609)"
             id="g390"><path
               d="M 0,0 -3.988,-2.266 -3.914,-2.34 0,-0.117 C 0.559,0.199 0.836,0.617 0.836,1.039 0.789,0.66 0.504,0.289 0,0"
               style="fill:#000000;fill-opacity:1;fill-rule:nonzero;stroke:none"
               id="path388" /></g></g></g></pattern><clipPath
       clipPathUnits="userSpaceOnUse"
       id="clipPath414"><path
         d="M 145.541,402.9 H 696.413 V 192.138 H 145.541 Z"
         id="path412" /></clipPath><clipPath
       clipPathUnits="userSpaceOnUse"
       id="clipPath418"><path
         d="M 145.541,402.9 H 696.413 V 192.138 H 145.541 Z"
         id="path416" /></clipPath><clipPath
       clipPathUnits="userSpaceOnUse"
       id="clipPath422"><path
         d="M 180.269,368.885 H 619.916 V 198.699 H 180.269 Z"
         id="path420" /></clipPath><mask
       maskUnits="userSpaceOnUse"
       x="0"
       y="0"
       width="1"
       height="1"
       id="mask424"><g
         id="g444"><g
           clip-path="url(#clipPath414)"
           id="g442"><path
             d="M 145.541,402.9 H 696.413 V 192.137 H 145.541 Z"
             style="fill:#000000;fill-opacity:1;fill-rule:nonzero;stroke:none"
             id="path426" /><g
             id="g440"><g
               id="g428" /><g
               id="g438"><g
                 clip-path="url(#clipPath418)"
                 id="g436"><g
                   id="g434"><g
                     clip-path="url(#clipPath422)"
                     id="g432"><path
                       d="M 180.269,368.885 H 619.916 V 198.699 H 180.269 Z"
                       style="fill:#000000;fill-opacity:0.25;fill-rule:nonzero;stroke:none"
                       id="path430" /></g></g></g></g></g></g></g></mask><clipPath
       clipPathUnits="userSpaceOnUse"
       id="clipPath452"><path
         d="M 145.541,402.9 H 696.413 V 192.138 H 145.541 Z"
         id="path450" /></clipPath></defs><sodipodi:namedview
     pagecolor="#ffffff"
     bordercolor="#666666"
     borderopacity="1"
     objecttolerance="10"
     gridtolerance="10"
     guidetolerance="10"
     inkscape:pageopacity="0"
     inkscape:pageshadow="2"
     inkscape:window-width="640"
     inkscape:window-height="480"
     id="namedview4" /><g
     id="g10"
     inkscape:groupmode="layer"
     inkscape:label="get-it-on-google-play-2016-seeklogo.com"
     transform="matrix(1.3333333,0,0,-1.3333333,0,793.7)"><g
       id="g12"><g
         id="g14"
         clip-path="url(#clipPath18)"><g
           id="g20"
           transform="translate(643.105,227.2646)"><path
             d="m 0,0 h -444.257 c -9.767,0 -17.769,7.908 -17.769,17.564 v 105.38 c 0,9.657 8.002,17.565 17.769,17.565 H 0 c 9.768,0 17.77,-7.908 17.77,-17.565 V 17.564 C 17.77,7.908 9.768,0 0,0"
             style="fill:#000000;fill-opacity:1;fill-rule:nonzero;stroke:none"
             id="path22" /></g><g
           id="g24"
           transform="translate(643.105,367.7739)"><path
             d="m 0,0 h -444.257 c -9.767,0 -17.769,-7.908 -17.769,-17.565 v -105.38 c 0,-9.656 8.002,-17.564 17.769,-17.564 H 0 c 9.768,0 17.77,7.908 17.77,17.564 v 105.38 C 17.77,-7.908 9.768,0 0,0 m 0,-2.815 c 8.227,0 14.92,-6.617 14.92,-14.75 v -105.38 c 0,-8.133 -6.693,-14.75 -14.92,-14.75 h -444.257 c -8.226,0 -14.919,6.617 -14.919,14.75 v 105.38 c 0,8.133 6.693,14.75 14.919,14.75 L 0,-2.815"
             style="fill:#a6a6a6;fill-opacity:1;fill-rule:nonzero;stroke:none"
             id="path26" /></g><g
           id="g28"
           transform="translate(349.6035,331.7886)"><path
             d="m 0,0 c 0,-2.933 -0.89,-5.28 -2.638,-7.032 -2.016,-2.078 -4.637,-3.123 -7.846,-3.123 -3.072,0 -5.693,1.063 -7.843,3.157 -2.153,2.126 -3.23,4.734 -3.23,7.853 0,3.124 1.077,5.73 3.23,7.839 2.15,2.112 4.771,3.175 7.843,3.175 1.526,0 2.984,-0.311 4.376,-0.893 1.385,-0.582 2.514,-1.371 3.331,-2.348 L -4.633,6.776 c -1.426,1.665 -3.369,2.486 -5.851,2.486 -2.241,0 -4.183,-0.776 -5.831,-2.334 -1.631,-1.561 -2.448,-3.587 -2.448,-6.073 0,-2.482 0.817,-4.525 2.448,-6.087 1.648,-1.544 3.59,-2.333 5.831,-2.333 2.375,0 4.376,0.789 5.952,2.351 1.038,1.031 1.63,2.455 1.786,4.272 h -7.738 V 1.593 H -0.159 C -0.038,1.045 0,0.516 0,0"
             style="fill:#ffffff;fill-opacity:1;fill-rule:nonzero;stroke:none"
             id="path30" /></g><g
           id="g32"
           transform="translate(349.6035,331.7886)"><path
             d="m 0,0 c 0,-2.933 -0.89,-5.28 -2.638,-7.032 -2.016,-2.078 -4.637,-3.123 -7.846,-3.123 -3.072,0 -5.693,1.063 -7.843,3.157 -2.153,2.126 -3.23,4.734 -3.23,7.853 0,3.124 1.077,5.73 3.23,7.839 2.15,2.112 4.771,3.175 7.843,3.175 1.526,0 2.984,-0.311 4.376,-0.893 1.385,-0.582 2.514,-1.371 3.331,-2.348 L -4.633,6.776 c -1.426,1.665 -3.369,2.486 -5.851,2.486 -2.241,0 -4.183,-0.776 -5.831,-2.334 -1.631,-1.561 -2.448,-3.587 -2.448,-6.073 0,-2.482 0.817,-4.525 2.448,-6.087 1.648,-1.544 3.59,-2.333 5.831,-2.333 2.375,0 4.376,0.789 5.952,2.351 1.038,1.031 1.63,2.455 1.786,4.272 h -7.738 V 1.593 H -0.159 C -0.038,1.045 0,0.516 0,0 Z"
             style="fill:none;stroke:#ffffff;stroke-width:0.16;stroke-linecap:butt;stroke-linejoin:miter;stroke-miterlimit:10;stroke-dasharray:none;stroke-opacity:1"
             id="path34" /></g><g
           id="g36"
           transform="translate(365.981,340.5903)"><path
             d="m 0,0 h -9.698 v -6.676 h 8.746 v -2.538 h -8.746 v -6.675 H 0 v -2.587 H -12.44 V 2.583 l 12.44,0 z"
             style="fill:#ffffff;fill-opacity:1;fill-rule:nonzero;stroke:none"
             id="path38" /></g><g
           id="g40"
           transform="translate(365.981,340.5903)"><path
             d="m 0,0 h -9.698 v -6.676 h 8.746 v -2.538 h -8.746 v -6.675 H 0 v -2.587 H -12.44 V 2.583 l 12.44,0 z"
             style="fill:none;stroke:#ffffff;stroke-width:0.16;stroke-linecap:butt;stroke-linejoin:miter;stroke-miterlimit:10;stroke-dasharray:none;stroke-opacity:1"
             id="path42" /></g><g
           id="g44"
           transform="translate(377.542,322.1143)"><path
             d="m 0,0 h -2.746 v 18.476 h -5.948 v 2.583 H 5.952 V 18.476 H 0 Z"
             style="fill:#ffffff;fill-opacity:1;fill-rule:nonzero;stroke:none"
             id="path46" /></g><g
           id="g48"
           transform="translate(377.542,322.1143)"><path
             d="m 0,0 h -2.746 v 18.476 h -5.948 v 2.583 H 5.952 V 18.476 H 0 Z"
             style="fill:none;stroke:#ffffff;stroke-width:0.16;stroke-linecap:butt;stroke-linejoin:miter;stroke-miterlimit:10;stroke-dasharray:none;stroke-opacity:1"
             id="path50" /></g><path
           d="m 394.096,343.173 h 2.738 v -21.059 h -2.738 z"
           style="fill:#ffffff;fill-opacity:1;fill-rule:nonzero;stroke:#ffffff;stroke-width:0.16;stroke-linecap:butt;stroke-linejoin:miter;stroke-miterlimit:10;stroke-dasharray:none;stroke-opacity:1"
           id="path52" /><g
           id="g54"
           transform="translate(408.9844,322.1143)"><path
             d="m 0,0 h -2.721 v 18.476 h -5.973 v 2.583 H 5.973 V 18.476 H 0 Z"
             style="fill:#ffffff;fill-opacity:1;fill-rule:nonzero;stroke:none"
             id="path56" /></g><g
           id="g58"
           transform="translate(408.9844,322.1143)"><path
             d="m 0,0 h -2.721 v 18.476 h -5.973 v 2.583 H 5.973 V 18.476 H 0 Z"
             style="fill:none;stroke:#ffffff;stroke-width:0.16;stroke-linecap:butt;stroke-linejoin:miter;stroke-miterlimit:10;stroke-dasharray:none;stroke-opacity:1"
             id="path60" /></g><g
           id="g62"
           transform="translate(429.0806,326.5913)"><path
             d="m 0,0 c 1.582,-1.579 3.504,-2.368 5.796,-2.368 2.275,0 4.218,0.789 5.779,2.368 1.578,1.576 2.379,3.601 2.379,6.052 0,2.455 -0.801,4.481 -2.379,6.056 -1.561,1.576 -3.504,2.369 -5.779,2.369 C 3.504,14.477 1.582,13.684 0,12.108 -1.579,10.533 -2.379,8.507 -2.379,6.052 -2.379,3.601 -1.579,1.576 0,0 m 13.607,-1.766 c -2.101,-2.129 -4.706,-3.192 -7.811,-3.192 -3.123,0 -5.727,1.063 -7.828,3.192 -2.095,2.126 -3.141,4.733 -3.141,7.818 0,3.089 1.046,5.697 3.141,7.823 2.101,2.128 4.705,3.191 7.828,3.191 3.089,0 5.692,-1.063 7.794,-3.209 2.112,-2.144 3.158,-4.733 3.158,-7.805 0,-3.085 -1.046,-5.692 -3.141,-7.818"
             style="fill:#ffffff;fill-opacity:1;fill-rule:nonzero;stroke:none"
             id="path64" /></g><g
           id="g66"
           transform="translate(429.0806,326.5913)"><path
             d="m 0,0 c 1.582,-1.579 3.504,-2.368 5.796,-2.368 2.275,0 4.218,0.789 5.779,2.368 1.578,1.576 2.379,3.601 2.379,6.052 0,2.455 -0.801,4.481 -2.379,6.056 -1.561,1.576 -3.504,2.369 -5.779,2.369 C 3.504,14.477 1.582,13.684 0,12.108 -1.579,10.533 -2.379,8.507 -2.379,6.052 -2.379,3.601 -1.579,1.576 0,0 Z m 13.607,-1.766 c -2.101,-2.129 -4.706,-3.192 -7.811,-3.192 -3.123,0 -5.727,1.063 -7.828,3.192 -2.095,2.126 -3.141,4.733 -3.141,7.818 0,3.089 1.046,5.697 3.141,7.823 2.101,2.128 4.705,3.191 7.828,3.191 3.089,0 5.692,-1.063 7.794,-3.209 2.112,-2.144 3.158,-4.733 3.158,-7.805 0,-3.085 -1.046,-5.692 -3.141,-7.818 z"
             style="fill:none;stroke:#ffffff;stroke-width:0.16;stroke-linecap:butt;stroke-linejoin:miter;stroke-miterlimit:10;stroke-dasharray:none;stroke-opacity:1"
             id="path68" /></g><g
           id="g70"
           transform="translate(449.6792,322.1143)"><path
             d="M 0,0 V 21.059 H 3.334 L 13.693,4.682 h 0.118 l -0.118,4.05 v 12.327 h 2.739 V 0 h -2.86 L 2.725,17.188 H 2.604 L 2.725,13.123 V 0 Z"
             style="fill:#ffffff;fill-opacity:1;fill-rule:nonzero;stroke:none"
             id="path72" /></g><g
           id="g74"
           transform="translate(449.6792,322.1143)"><path
             d="M 0,0 V 21.059 H 3.334 L 13.693,4.682 h 0.118 l -0.118,4.05 v 12.327 h 2.739 V 0 h -2.86 L 2.725,17.188 H 2.604 L 2.725,13.123 V 0 Z"
             style="fill:none;stroke:#ffffff;stroke-width:0.16;stroke-linecap:butt;stroke-linejoin:miter;stroke-miterlimit:10;stroke-dasharray:none;stroke-opacity:1"
             id="path76" /></g><path
           d="m 561.125,262.391 h 6.647 v 43.911 h -6.647 z m 59.748,28.094 -7.618,-19.037 h -0.228 l -7.877,19.037 h -7.147 l 11.834,-26.602 -6.752,-14.798 h 6.926 l 18.237,41.4 z M 583.25,267.384 c -2.168,0 -5.191,1.062 -5.191,3.719 0,3.4 3.768,4.702 7.029,4.702 2.919,0 4.287,-0.634 6.059,-1.476 -0.519,-4.064 -4.062,-6.945 -7.897,-6.945 m 0.799,24.063 c -4.788,0 -9.77,-2.091 -11.817,-6.723 l 5.883,-2.438 c 1.263,2.438 3.593,3.227 6.052,3.227 3.442,0 6.928,-2.039 6.98,-5.647 v -0.461 c -1.198,0.686 -3.767,1.7 -6.925,1.7 -6.336,0 -12.79,-3.445 -12.79,-9.878 0,-5.886 5.191,-9.674 11.021,-9.674 4.46,0 6.922,1.991 8.469,4.303 h 0.225 v -3.392 h 6.402 v 16.841 c 0,7.787 -5.882,12.142 -13.5,12.142 m -40.974,-6.311 h -9.439 v 15.058 h 9.439 c 4.948,0 7.773,-4.062 7.773,-7.528 0,-3.396 -2.825,-7.53 -7.773,-7.53 m -0.173,21.166 h -15.897 v -43.911 h 6.631 v 16.637 h 9.266 c 7.361,0 14.58,5.266 14.58,13.638 0,8.369 -7.236,13.636 -14.58,13.636 m -86.649,-38.936 c -4.58,0 -8.413,3.788 -8.413,9.006 0,5.267 3.833,9.107 8.413,9.107 4.516,0 8.075,-3.84 8.075,-9.107 0,-5.218 -3.559,-9.006 -8.075,-9.006 m 7.604,20.668 h -0.225 c -1.492,1.748 -4.338,3.327 -7.946,3.327 -7.569,0 -14.49,-6.568 -14.49,-14.989 0,-8.372 6.921,-14.889 14.49,-14.889 3.608,0 6.454,1.593 7.946,3.394 h 0.225 v -2.144 c 0,-5.712 -3.088,-8.78 -8.067,-8.78 -4.062,0 -6.582,2.898 -7.621,5.335 l -5.779,-2.385 c 1.666,-3.962 6.076,-8.833 13.4,-8.833 7.791,0 14.366,4.529 14.366,15.557 v 26.827 h -6.299 z m 10.883,-25.643 h 6.648 v 43.911 h -6.648 z m 16.432,14.494 c -0.172,5.761 4.53,8.711 7.895,8.711 2.639,0 4.879,-1.302 5.623,-3.168 z m 20.617,4.975 c -1.25,3.341 -5.101,9.501 -12.948,9.501 -7.776,0 -14.247,-6.052 -14.247,-14.94 0,-8.369 6.406,-14.938 14.992,-14.938 6.946,0 10.953,4.183 12.6,6.621 l -5.151,3.393 c -1.722,-2.482 -4.063,-4.131 -7.449,-4.131 -3.362,0 -5.775,1.524 -7.319,4.53 l 20.217,8.264 -0.699,1.7 z m -161.026,4.924 v -6.35 h 15.339 c -0.45,-3.549 -1.648,-6.157 -3.487,-7.974 -2.24,-2.195 -5.727,-4.633 -11.852,-4.633 -9.442,0 -16.834,7.53 -16.834,16.861 0,9.333 7.392,16.863 16.834,16.863 5.104,0 8.82,-1.973 11.558,-4.529 l 4.529,4.474 c -3.837,3.618 -8.936,6.399 -16.087,6.399 -12.946,0 -23.825,-10.413 -23.825,-23.207 0,-12.792 10.879,-23.205 23.825,-23.205 6.994,0 12.25,2.265 16.385,6.517 4.231,4.183 5.55,10.068 5.55,14.819 0,1.475 -0.125,2.832 -0.346,3.965 z m 39.379,-19.418 c -4.584,0 -8.538,3.737 -8.538,9.055 0,5.388 3.954,9.058 8.538,9.058 4.581,0 8.521,-3.67 8.521,-9.058 0,-5.318 -3.94,-9.055 -8.521,-9.055 m 0,23.995 c -8.365,0 -15.169,-6.277 -15.169,-14.94 0,-8.594 6.804,-14.938 15.169,-14.938 8.358,0 15.165,6.344 15.165,14.938 0,8.663 -6.807,14.94 -15.165,14.94 m 33.09,-23.995 c -4.58,0 -8.521,3.737 -8.521,9.055 0,5.388 3.941,9.058 8.521,9.058 4.581,0 8.539,-3.67 8.539,-9.058 0,-5.318 -3.958,-9.055 -8.539,-9.055 m 0,23.995 c -8.348,0 -15.165,-6.277 -15.165,-14.94 0,-8.594 6.817,-14.938 15.165,-14.938 8.365,0 15.186,6.344 15.186,14.938 0,8.663 -6.821,14.94 -15.186,14.94"
           style="fill:#ffffff;fill-opacity:1;fill-rule:nonzero;stroke:none"
           id="path78" /></g></g><g
       id="g80"><g
         id="g82"><g
           id="g88"><g
             id="g90"><path
               d="m 218.165,341.29 c -1.042,-1.08 -1.647,-2.76 -1.647,-4.938 v 0 -77.683 c 0,-2.178 0.605,-3.861 1.647,-4.942 v 0 l 0.26,-0.235 44.042,43.512 v 1.029 l -44.042,43.513 z"
               style="fill:url(#linearGradient104);stroke:none"
               id="path106" /></g></g></g></g><g
       id="g108"><g
         id="g110"><g
           id="g116"><g
             id="g118"><path
               d="m 262.467,298.033 v -1.029 l 14.664,-14.51 0.346,0.187 17.389,9.76 c 4.961,2.794 4.961,7.362 0,10.135 v 0 l -17.389,9.778 -0.328,0.191 z"
               style="fill:url(#linearGradient128);stroke:none"
               id="path130" /></g></g></g></g><g
       id="g132"><g
         id="g134"><g
           id="g140"><g
             id="g142"><path
               d="m 218.165,253.727 c 1.648,-1.709 4.336,-1.918 7.393,-0.203 v 0 l 51.919,29.157 -15.01,14.836 z"
               style="fill:url(#linearGradient148);stroke:none"
               id="path150" /></g></g></g></g><g
       id="g152"><g
         id="g154"><g
           id="g160"><g
             id="g162"><path
               d="m 218.165,341.29 44.302,-43.773 15.01,14.837 -51.919,29.161 c -1.432,0.794 -2.783,1.171 -3.984,1.171 v 0 c -1.363,0 -2.533,-0.485 -3.409,-1.396"
               style="fill:url(#linearGradient174);stroke:none"
               id="path176" /></g></g></g></g><g
       id="g178"><g
         id="g180"
         clip-path="url(#clipPath184)"><g
           id="g186"><g
             id="g188" /><g
             id="g224"
             mask="url(#mask202)"><g
               id="g226" /><g
               id="g258"><g
                 clip-path="url(#clipPath230)"
                 id="g256"><g
                   id="g254"><g
                     clip-path="url(#clipPath234)"
                     id="g252"><path
                       d="M 145.541,192.138 H 696.413 V 402.901 H 145.541 Z"
                       style="fill:url(#pattern248);fill-opacity:1;fill-rule:nonzero;stroke:none"
                       id="path250" /></g></g></g></g></g></g><g
           id="g260"><g
             id="g262" /><g
             id="g298"
             mask="url(#mask276)"><g
               id="g300" /><g
               id="g332"><g
                 clip-path="url(#clipPath304)"
                 id="g330"><g
                   id="g328"><g
                     clip-path="url(#clipPath308)"
                     id="g326"><path
                       d="M 145.541,192.138 H 696.413 V 402.901 H 145.541 Z"
                       style="fill:url(#pattern322);fill-opacity:1;fill-rule:nonzero;stroke:none"
                       id="path324" /></g></g></g></g></g></g><g
           id="g334"><g
             id="g336" /><g
             id="g372"
             mask="url(#mask350)"><g
               id="g374" /><g
               id="g406"><g
                 clip-path="url(#clipPath378)"
                 id="g404"><g
                   id="g402"><g
                     clip-path="url(#clipPath382)"
                     id="g400"><path
                       d="M 145.541,192.138 H 696.413 V 402.901 H 145.541 Z"
                       style="fill:url(#pattern396);fill-opacity:1;fill-rule:nonzero;stroke:none"
                       id="path398" /></g></g></g></g></g></g><g
           id="g408"><g
             id="g410" /><g
             id="g446"
             mask="url(#mask424)"><g
               id="g448" /><g
               id="g456"><g
                 clip-path="url(#clipPath452)"
                 id="g454" /></g></g></g></g></g></g></svg>
